<?xml version="1.0" encoding="iso-8859-1"?>
<!DOCTYPE svg PUBLIC "-//W3C//DTD SVG 1.1//EN" "http://www.w3.org/Graphics/SVG/1.1/DTD/svg11.dtd">
<svg  version="1.1" xmlns="http://www.w3.org/2000/svg" xmlns:xlink="http://www.w3.org/1999/xlink" x="0px" y="0px" width="512px"
	 height="512px" viewBox="0 0 512 512" enable-background="new 0 0 512 512" xml:space="preserve"><g id="1b1c9b208ed950244c86edd4d203edfc"><path display="inline" d="M405.042,0.5H106.958C48.406,0.5,0.5,48.406,0.5,106.958v298.083C0.5,463.594,48.406,511.5,106.958,511.5
		h298.083c58.552,0,106.458-47.906,106.458-106.458V106.958C511.5,48.406,463.594,0.5,405.042,0.5z M412.145,339.221l-22.136,22.144
		c-18.992,18.984-49.882,18.984-68.87,0L256,296.222l-65.135,65.143c-9.153,9.146-21.379,14.186-34.437,14.186
		s-25.284-5.036-34.433-14.186l-22.14-22.136c-9.149-9.152-14.189-21.383-14.189-34.437c0-13.058,5.04-25.284,14.189-34.433
		l119.828-119.836c9.515-9.515,22.286-14.521,35.959-14.097h0.74c13.661-0.416,26.423,4.591,35.93,14.097l119.832,119.833
		c9.152,9.148,14.188,21.379,14.188,34.437C426.333,317.846,421.297,330.071,412.145,339.221z"></path></g></svg>