<?xml version="1.0" encoding="iso-8859-1"?>
<!DOCTYPE svg PUBLIC "-//W3C//DTD SVG 1.1//EN" "http://www.w3.org/Graphics/SVG/1.1/DTD/svg11.dtd">
<svg  version="1.1" xmlns="http://www.w3.org/2000/svg" xmlns:xlink="http://www.w3.org/1999/xlink" x="0px" y="0px" width="512px"
	 height="512px" viewBox="0 0 512 512" enable-background="new 0 0 512 512" xml:space="preserve"><g id="1b1c9b208ed950244c86edd4d203027a"><path display="inline" d="M488.486,339.696c30.685,30.689,30.685,80.901,0,111.591l-37.199,37.199
		c-30.685,30.685-80.906,30.685-111.591,0L256,404.79l-83.696,83.696c-30.685,30.685-80.906,30.685-111.591,0l-37.199-37.199
		c-30.685-30.689-30.685-80.901,0-111.591L107.209,256l-83.696-83.696c-30.685-30.69-30.685-80.901,0-111.591l37.199-37.199
		c30.685-30.685,80.907-30.685,111.591,0L256,107.209l83.696-83.696c30.685-30.685,80.906-30.685,111.591,0l37.199,37.199
		c30.685,30.69,30.685,80.901,0,111.591L404.79,256L488.486,339.696z"></path></g></svg>