<?xml version="1.0" encoding="iso-8859-1"?>
<!DOCTYPE svg PUBLIC "-//W3C//DTD SVG 1.1//EN" "http://www.w3.org/Graphics/SVG/1.1/DTD/svg11.dtd">
<svg  version="1.1" xmlns="http://www.w3.org/2000/svg" xmlns:xlink="http://www.w3.org/1999/xlink" x="0px" y="0px" width="512px"
	 height="512px" viewBox="0 0 512 512" enable-background="new 0 0 512 512" xml:space="preserve"><g id="1b1c9b208ed950244c86edd4d203de97"><path display="inline" d="M405.042,0.5H106.958C48.406,0.5,0.5,48.406,0.5,106.958v298.083C0.5,463.594,48.406,511.5,106.958,511.5
		h298.083c58.552,0,106.458-47.906,106.458-106.458V106.958C511.5,48.406,463.594,0.5,405.042,0.5z M361.364,321.135
		c9.145,9.153,14.186,21.379,14.186,34.438c0,13.058-5.036,25.283-14.186,34.433l-22.136,22.14
		c-9.152,9.148-21.383,14.188-34.437,14.188c-13.058,0-25.284-5.04-34.433-14.188L150.523,292.316
		c-9.515-9.515-14.521-22.285-14.097-35.959v-0.74c-0.416-13.661,4.591-26.423,14.097-35.93L270.355,99.855
		c9.148-9.153,21.379-14.189,34.437-14.189c13.054,0,25.279,5.036,34.429,14.189l22.144,22.136c18.984,18.992,18.984,49.882,0,68.87
		L296.222,256L361.364,321.135z"></path></g></svg>