<?xml version="1.0" encoding="iso-8859-1"?>
<!DOCTYPE svg PUBLIC "-//W3C//DTD SVG 1.1//EN" "http://www.w3.org/Graphics/SVG/1.1/DTD/svg11.dtd">
<svg  version="1.1" xmlns="http://www.w3.org/2000/svg" xmlns:xlink="http://www.w3.org/1999/xlink" x="0px" y="0px" width="512px"
	 height="512px" viewBox="0 0 512 512" enable-background="new 0 0 512 512" xml:space="preserve"><g id="1b1c9b208ed950244c86edd4d203d1da"><path display="inline" d="M405.042,0.5H106.958C48.406,0.5,0.5,48.406,0.5,106.958v298.083C0.5,463.594,48.406,511.5,106.958,511.5
		h298.083c58.552,0,106.458-47.906,106.458-106.458V106.958C511.5,48.406,463.594,0.5,405.042,0.5z M375.55,256.357
		c0.424,13.674-4.583,26.444-14.098,35.959L241.616,412.145c-9.149,9.148-21.375,14.188-34.433,14.188
		c-13.054,0-25.284-5.04-34.437-14.188l-22.136-22.14c-9.149-9.149-14.185-21.375-14.185-34.433c0-13.059,5.04-25.284,14.185-34.438
		L215.754,256l-65.144-65.139c-18.984-18.988-18.984-49.877,0-68.87l22.144-22.136c9.149-9.153,21.375-14.189,34.429-14.189
		c13.058,0,25.288,5.036,34.437,14.189l119.833,119.833c9.506,9.506,14.513,22.269,14.098,35.93V256.357z"></path></g></svg>